<?xml version="1.0" encoding="UTF-8" standalone="no"?><svg xmlns="http://www.w3.org/2000/svg" xmlns:xlink="http://www.w3.org/1999/xlink" contentStyleType="text/css" height="860px" preserveAspectRatio="none" style="width:3483px;height:860px;background:#FFFFFF;" version="1.1" viewBox="0 0 3483 860" width="3483px" zoomAndPan="magnify"><defs/><g><!--MD5=[15636c1ca4a123c16a2a1a8e90aca7a9]
cluster Model--><g id="cluster_Model"><path d="M8.5,6 L56.5,6 A3.75,3.75 0 0 1 59,8.5 L66,28.2969 L2338.5,28.2969 A2.5,2.5 0 0 1 2341,30.7969 L2341,758.5 A2.5,2.5 0 0 1 2338.5,761 L8.5,761 A2.5,2.5 0 0 1 6,758.5 L6,8.5 A2.5,2.5 0 0 1 8.5,6 " fill="none" style="stroke:#000000;stroke-width:1.5;"/><line style="stroke:#000000;stroke-width:1.5;" x1="6" x2="66" y1="28.2969" y2="28.2969"/><text fill="#000000" font-family="sans-serif" font-size="14" font-weight="bold" lengthAdjust="spacing" textLength="47" x="10" y="20.9951">Model</text></g><!--MD5=[d1a1120c5ba475f3b14f4eec3b595af7]
cluster Vue--><g id="cluster_Vue"><path d="M2367.5,548 L2399.5,548 A3.75,3.75 0 0 1 2402,550.5 L2409,570.2969 L3473.5,570.2969 A2.5,2.5 0 0 1 3476,572.7969 L3476,693.5 A2.5,2.5 0 0 1 3473.5,696 L2367.5,696 A2.5,2.5 0 0 1 2365,693.5 L2365,550.5 A2.5,2.5 0 0 1 2367.5,548 " fill="none" style="stroke:#000000;stroke-width:1.5;"/><line style="stroke:#000000;stroke-width:1.5;" x1="2365" x2="2409" y1="570.2969" y2="570.2969"/><text fill="#000000" font-family="sans-serif" font-size="14" font-weight="bold" lengthAdjust="spacing" textLength="31" x="2369" y="562.9951">Vue</text></g><!--MD5=[91df4df3cf1b37ae445e7b03641b018a]
cluster Controleur--><g id="cluster_Controleur"><path d="M2695.5,30.5 L2781.5,30.5 A3.75,3.75 0 0 1 2784,33 L2791,52.7969 L3144.5,52.7969 A2.5,2.5 0 0 1 3147,55.2969 L3147,241 A2.5,2.5 0 0 1 3144.5,243.5 L2695.5,243.5 A2.5,2.5 0 0 1 2693,241 L2693,33 A2.5,2.5 0 0 1 2695.5,30.5 " fill="none" style="stroke:#000000;stroke-width:1.5;"/><line style="stroke:#000000;stroke-width:1.5;" x1="2693" x2="2791" y1="52.7969" y2="52.7969"/><text fill="#000000" font-family="sans-serif" font-size="14" font-weight="bold" lengthAdjust="spacing" textLength="85" x="2697" y="45.4951">Controleur</text></g><!--MD5=[46d769877d673caae82d617fd1e51850]
class Droits--><g id="elem_Droits"><rect codeLine="2" fill="#F1F1F1" height="96.8906" id="Droits" rx="2.5" ry="2.5" style="stroke:#181818;stroke-width:0.5;" width="199" x="849.5" y="98"/><ellipse cx="924.25" cy="114" fill="#EB937F" rx="11" ry="11" style="stroke:#181818;stroke-width:1.0;"/><path d="M928.3594,120 L920.6406,120 L920.6406,107.6094 L928.3594,107.6094 L928.3594,109.7656 L923.0938,109.7656 L923.0938,112.4375 L927.8594,112.4375 L927.8594,114.5938 L923.0938,114.5938 L923.0938,117.8438 L928.3594,117.8438 L928.3594,120 Z " fill="#000000"/><text fill="#000000" font-family="sans-serif" font-size="14" lengthAdjust="spacing" textLength="41" x="944.75" y="118.8467">Droits</text><line style="stroke:#181818;stroke-width:0.5;" x1="850.5" x2="1047.5" y1="130" y2="130"/><text fill="#000000" font-family="sans-serif" font-size="14" lengthAdjust="spacing" textLength="52" x="855.5" y="146.9951">Lecture</text><text fill="#000000" font-family="sans-serif" font-size="14" lengthAdjust="spacing" textLength="134" x="855.5" y="163.292">LectureModification</text><text fill="#000000" font-family="sans-serif" font-size="14" lengthAdjust="spacing" textLength="187" x="855.5" y="179.5889">LectureModificationEcriture</text><line style="stroke:#181818;stroke-width:0.5;" x1="850.5" x2="1047.5" y1="186.8906" y2="186.8906"/></g><!--MD5=[4337fef93a4164fb5e17f09a2ace23d6]
class Personne--><g id="elem_Personne"><rect codeLine="8" fill="#F1F1F1" height="80.5938" id="Personne" rx="2.5" ry="2.5" style="stroke:#181818;stroke-width:0.5;" width="106" x="1084" y="106"/><ellipse cx="1102.15" cy="122" fill="#A9DCDF" rx="11" ry="11" style="stroke:#181818;stroke-width:1.0;"/><path d="M1102.2594,117.3438 L1101.1031,122.4219 L1103.4313,122.4219 L1102.2594,117.3438 Z M1100.775,115.1094 L1103.7594,115.1094 L1107.1188,127.5 L1104.6656,127.5 L1103.9,124.4375 L1100.6188,124.4375 L1099.8688,127.5 L1097.4313,127.5 L1100.775,115.1094 Z " fill="#000000"/><text fill="#000000" font-family="sans-serif" font-size="14" font-style="italic" lengthAdjust="spacing" textLength="67" x="1116.85" y="126.8467">Personne</text><line style="stroke:#181818;stroke-width:0.5;" x1="1085" x2="1189" y1="138" y2="138"/><rect fill="none" height="6" style="stroke:#C82930;stroke-width:1.0;" width="6" x="1092" y="148.6484"/><text fill="#000000" font-family="sans-serif" font-size="14" lengthAdjust="spacing" textLength="55" x="1104" y="154.9951">id: UUID</text><rect fill="none" height="6" style="stroke:#C82930;stroke-width:1.0;" width="6" x="1092" y="164.9453"/><text fill="#000000" font-family="sans-serif" font-size="14" lengthAdjust="spacing" textLength="80" x="1104" y="171.292">nom: String</text><line style="stroke:#181818;stroke-width:0.5;" x1="1085" x2="1189" y1="178.5938" y2="178.5938"/></g><!--MD5=[354e8650cefe639d77b0834953981666]
class Utilisateur--><g id="elem_Utilisateur"><rect codeLine="13" fill="#F1F1F1" height="210.9688" id="Utilisateur" rx="2.5" ry="2.5" style="stroke:#181818;stroke-width:0.5;" width="440" x="1225" y="41"/><ellipse cx="1406.75" cy="57" fill="#ADD1B2" rx="11" ry="11" style="stroke:#181818;stroke-width:1.0;"/><path d="M1409.7188,62.6406 Q1409.1406,62.9375 1408.5,63.0781 Q1407.8594,63.2344 1407.1563,63.2344 Q1404.6563,63.2344 1403.3281,61.5938 Q1402.0156,59.9375 1402.0156,56.8125 Q1402.0156,53.6875 1403.3281,52.0313 Q1404.6563,50.375 1407.1563,50.375 Q1407.8594,50.375 1408.5,50.5313 Q1409.1563,50.6875 1409.7188,50.9844 L1409.7188,53.7031 Q1409.0938,53.125 1408.5,52.8594 Q1407.9063,52.5781 1407.2813,52.5781 Q1405.9375,52.5781 1405.25,53.6563 Q1404.5625,54.7188 1404.5625,56.8125 Q1404.5625,58.9063 1405.25,59.9844 Q1405.9375,61.0469 1407.2813,61.0469 Q1407.9063,61.0469 1408.5,60.7813 Q1409.0938,60.5 1409.7188,59.9219 L1409.7188,62.6406 Z " fill="#000000"/><text fill="#000000" font-family="sans-serif" font-size="14" lengthAdjust="spacing" textLength="68" x="1427.25" y="61.8467">Utilisateur</text><line style="stroke:#181818;stroke-width:0.5;" x1="1226" x2="1664" y1="73" y2="73"/><rect fill="none" height="6" style="stroke:#C82930;stroke-width:1.0;" width="6" x="1233" y="83.6484"/><text fill="#000000" font-family="sans-serif" font-size="14" lengthAdjust="spacing" textLength="192" x="1245" y="89.9951">profils: Map&lt;String, Droits&gt;</text><ellipse cx="1236" cy="102.9453" fill="none" rx="3" ry="3" style="stroke:#038048;stroke-width:1.0;"/><text fill="#000000" font-family="sans-serif" font-size="14" lengthAdjust="spacing" textLength="157" x="1245" y="106.292">droitsParDefaut: Droits</text><line style="stroke:#181818;stroke-width:0.5;" x1="1226" x2="1664" y1="113.5938" y2="113.5938"/><ellipse cx="1236" cy="127.2422" fill="#84BE84" rx="3" ry="3" style="stroke:#038048;stroke-width:1.0;"/><text fill="#000000" font-family="sans-serif" font-size="14" lengthAdjust="spacing" textLength="279" x="1245" y="130.5889">changerProfil(nouveauProfil: String): void</text><ellipse cx="1236" cy="143.5391" fill="#84BE84" rx="3" ry="3" style="stroke:#038048;stroke-width:1.0;"/><text fill="#000000" font-family="sans-serif" font-size="14" lengthAdjust="spacing" textLength="275" x="1245" y="146.8857">seConnecter(motDePasse: String): void</text><ellipse cx="1236" cy="159.8359" fill="#84BE84" rx="3" ry="3" style="stroke:#038048;stroke-width:1.0;"/><text fill="#000000" font-family="sans-serif" font-size="14" lengthAdjust="spacing" textLength="155" x="1245" y="163.1826">seDeconnecter(): void</text><ellipse cx="1236" cy="176.1328" fill="#84BE84" rx="3" ry="3" style="stroke:#038048;stroke-width:1.0;"/><text fill="#000000" font-family="sans-serif" font-size="14" lengthAdjust="spacing" textLength="263" x="1245" y="179.4795">supprimerProfil(nomProfil: String): void</text><ellipse cx="1236" cy="192.4297" fill="#84BE84" rx="3" ry="3" style="stroke:#038048;stroke-width:1.0;"/><text fill="#000000" font-family="sans-serif" font-size="14" lengthAdjust="spacing" textLength="338" x="1245" y="195.7764">ajouterProfil(nomProfil: String, droits: Droits): void</text><ellipse cx="1236" cy="208.7266" fill="#84BE84" rx="3" ry="3" style="stroke:#038048;stroke-width:1.0;"/><text fill="#000000" font-family="sans-serif" font-size="14" lengthAdjust="spacing" textLength="414" x="1245" y="212.0732">modifierProfil(nomProfil: String, nouveauxDroits: Droits): void</text><ellipse cx="1236" cy="225.0234" fill="#84BE84" rx="3" ry="3" style="stroke:#038048;stroke-width:1.0;"/><text fill="#000000" font-family="sans-serif" font-size="14" lengthAdjust="spacing" textLength="277" x="1245" y="228.3701">chargerBDD(cheminFichier: String): void</text><ellipse cx="1236" cy="241.3203" fill="#84BE84" rx="3" ry="3" style="stroke:#038048;stroke-width:1.0;"/><text fill="#000000" font-family="sans-serif" font-size="14" lengthAdjust="spacing" textLength="279" x="1245" y="244.667">modifierBDD(cheminFichier: String): void</text></g><!--MD5=[60ae0492841f67b63cfeabc6b596b865]
class Administrateur--><g id="elem_Administrateur"><rect codeLine="27" fill="#F1F1F1" height="145.7813" id="Administrateur" rx="2.5" ry="2.5" style="stroke:#181818;stroke-width:0.5;" width="660" x="619" y="312"/><ellipse cx="894.75" cy="328" fill="#ADD1B2" rx="11" ry="11" style="stroke:#181818;stroke-width:1.0;"/><path d="M897.7188,333.6406 Q897.1406,333.9375 896.5,334.0781 Q895.8594,334.2344 895.1563,334.2344 Q892.6563,334.2344 891.3281,332.5938 Q890.0156,330.9375 890.0156,327.8125 Q890.0156,324.6875 891.3281,323.0313 Q892.6563,321.375 895.1563,321.375 Q895.8594,321.375 896.5,321.5313 Q897.1563,321.6875 897.7188,321.9844 L897.7188,324.7031 Q897.0938,324.125 896.5,323.8594 Q895.9063,323.5781 895.2813,323.5781 Q893.9375,323.5781 893.25,324.6563 Q892.5625,325.7188 892.5625,327.8125 Q892.5625,329.9063 893.25,330.9844 Q893.9375,332.0469 895.2813,332.0469 Q895.9063,332.0469 896.5,331.7813 Q897.0938,331.5 897.7188,330.9219 L897.7188,333.6406 Z " fill="#000000"/><text fill="#000000" font-family="sans-serif" font-size="14" lengthAdjust="spacing" textLength="100" x="915.25" y="332.8467">Administrateur</text><line style="stroke:#181818;stroke-width:0.5;" x1="620" x2="1278" y1="344" y2="344"/><line style="stroke:#181818;stroke-width:0.5;" x1="620" x2="1278" y1="352" y2="352"/><ellipse cx="630" cy="365.6484" fill="#84BE84" rx="3" ry="3" style="stroke:#038048;stroke-width:1.0;"/><text fill="#000000" font-family="sans-serif" font-size="14" lengthAdjust="spacing" textLength="558" x="639" y="368.9951">ajouterProfilUtilisateur(utilisateur: Utilisateur, nomProfil: String, droits: Droits): void</text><ellipse cx="630" cy="381.9453" fill="#84BE84" rx="3" ry="3" style="stroke:#038048;stroke-width:1.0;"/><text fill="#000000" font-family="sans-serif" font-size="14" lengthAdjust="spacing" textLength="483" x="639" y="385.292">supprimerProfilUtilisateur(utilisateur: Utilisateur, nomProfil: String): void</text><ellipse cx="630" cy="398.2422" fill="#84BE84" rx="3" ry="3" style="stroke:#038048;stroke-width:1.0;"/><text fill="#000000" font-family="sans-serif" font-size="14" lengthAdjust="spacing" textLength="634" x="639" y="401.5889">modifierProfilUtilisateur(utilisateur: Utilisateur, nomProfil: String, nouveauxDroits: Droits): void</text><ellipse cx="630" cy="414.5391" fill="#84BE84" rx="3" ry="3" style="stroke:#038048;stroke-width:1.0;"/><text fill="#000000" font-family="sans-serif" font-size="14" lengthAdjust="spacing" textLength="380" x="639" y="417.8857">ajouterUtilisateur(nom: String, droits: Droits): Utilisateur</text><ellipse cx="630" cy="430.8359" fill="#84BE84" rx="3" ry="3" style="stroke:#038048;stroke-width:1.0;"/><text fill="#000000" font-family="sans-serif" font-size="14" lengthAdjust="spacing" textLength="329" x="639" y="434.1826">supprimerUtilisateur(utilisateur: Utilisateur): void</text><ellipse cx="630" cy="447.1328" fill="#84BE84" rx="3" ry="3" style="stroke:#038048;stroke-width:1.0;"/><text fill="#000000" font-family="sans-serif" font-size="14" lengthAdjust="spacing" textLength="480" x="639" y="450.4795">modifierUtilisateur(utilisateur: Utilisateur, nouveauxDroits: Droits): void</text></g><!--MD5=[2979768b13ae25ba49b9e01329df4184]
class ParseurJson--><g id="elem_ParseurJson"><rect codeLine="36" fill="#F1F1F1" height="145.7813" id="ParseurJson" rx="2.5" ry="2.5" style="stroke:#181818;stroke-width:0.5;" width="647" x="1314.5" y="312"/><ellipse cx="1592.75" cy="328" fill="#ADD1B2" rx="11" ry="11" style="stroke:#181818;stroke-width:1.0;"/><path d="M1595.7188,333.6406 Q1595.1406,333.9375 1594.5,334.0781 Q1593.8594,334.2344 1593.1563,334.2344 Q1590.6563,334.2344 1589.3281,332.5938 Q1588.0156,330.9375 1588.0156,327.8125 Q1588.0156,324.6875 1589.3281,323.0313 Q1590.6563,321.375 1593.1563,321.375 Q1593.8594,321.375 1594.5,321.5313 Q1595.1563,321.6875 1595.7188,321.9844 L1595.7188,324.7031 Q1595.0938,324.125 1594.5,323.8594 Q1593.9063,323.5781 1593.2813,323.5781 Q1591.9375,323.5781 1591.25,324.6563 Q1590.5625,325.7188 1590.5625,327.8125 Q1590.5625,329.9063 1591.25,330.9844 Q1591.9375,332.0469 1593.2813,332.0469 Q1593.9063,332.0469 1594.5,331.7813 Q1595.0938,331.5 1595.7188,330.9219 L1595.7188,333.6406 Z " fill="#000000"/><text fill="#000000" font-family="sans-serif" font-size="14" lengthAdjust="spacing" textLength="82" x="1613.25" y="332.8467">ParseurJson</text><line style="stroke:#181818;stroke-width:0.5;" x1="1315.5" x2="1960.5" y1="344" y2="344"/><line style="stroke:#181818;stroke-width:0.5;" x1="1315.5" x2="1960.5" y1="352" y2="352"/><ellipse cx="1325.5" cy="365.6484" fill="#84BE84" rx="3" ry="3" style="stroke:#038048;stroke-width:1.0;"/><text fill="#000000" font-family="sans-serif" font-size="14" lengthAdjust="spacing" textLength="394" x="1334.5" y="368.9951">lireFichierJsonUtilisateur(cheminFichier: String): Utilisateur</text><ellipse cx="1325.5" cy="381.9453" fill="#84BE84" rx="3" ry="3" style="stroke:#038048;stroke-width:1.0;"/><text fill="#000000" font-family="sans-serif" font-size="14" lengthAdjust="spacing" textLength="525" x="1334.5" y="385.292">ecrireFichierJsonUtilisateur(utilisateur: Utilisateur, cheminFichier: String): void</text><ellipse cx="1325.5" cy="398.2422" fill="#84BE84" rx="3" ry="3" style="stroke:#038048;stroke-width:1.0;"/><text fill="#000000" font-family="sans-serif" font-size="14" lengthAdjust="spacing" textLength="458" x="1334.5" y="401.5889">lireFichierJsonAdministrateur(cheminFichier: String): Administrateur</text><ellipse cx="1325.5" cy="414.5391" fill="#84BE84" rx="3" ry="3" style="stroke:#038048;stroke-width:1.0;"/><text fill="#000000" font-family="sans-serif" font-size="14" lengthAdjust="spacing" textLength="621" x="1334.5" y="417.8857">ecrireFichierJsonAdministrateur(administrateur: Administrateur, cheminFichier: String): void</text><ellipse cx="1325.5" cy="430.8359" fill="#84BE84" rx="3" ry="3" style="stroke:#038048;stroke-width:1.0;"/><text fill="#000000" font-family="sans-serif" font-size="14" lengthAdjust="spacing" textLength="333" x="1334.5" y="434.1826">crypterMotDePasse(motDePasse: String): String</text><ellipse cx="1325.5" cy="447.1328" fill="#84BE84" rx="3" ry="3" style="stroke:#038048;stroke-width:1.0;"/><text fill="#000000" font-family="sans-serif" font-size="14" lengthAdjust="spacing" textLength="396" x="1334.5" y="450.4795">decrypterMotDePasse(motDePasseCrypte: String): String</text></g><!--MD5=[d7ec9fb1c2bd53497b9b912d88b0ab1e]
class LecteurSQL--><g id="elem_LecteurSQL"><rect codeLine="45" fill="#F1F1F1" height="80.5938" id="LecteurSQL" rx="2.5" ry="2.5" style="stroke:#181818;stroke-width:0.5;" width="329" x="1996.5" y="344.5"/><ellipse cx="2117.25" cy="360.5" fill="#ADD1B2" rx="11" ry="11" style="stroke:#181818;stroke-width:1.0;"/><path d="M2120.2188,366.1406 Q2119.6406,366.4375 2119,366.5781 Q2118.3594,366.7344 2117.6563,366.7344 Q2115.1563,366.7344 2113.8281,365.0938 Q2112.5156,363.4375 2112.5156,360.3125 Q2112.5156,357.1875 2113.8281,355.5313 Q2115.1563,353.875 2117.6563,353.875 Q2118.3594,353.875 2119,354.0313 Q2119.6563,354.1875 2120.2188,354.4844 L2120.2188,357.2031 Q2119.5938,356.625 2119,356.3594 Q2118.4063,356.0781 2117.7813,356.0781 Q2116.4375,356.0781 2115.75,357.1563 Q2115.0625,358.2188 2115.0625,360.3125 Q2115.0625,362.4063 2115.75,363.4844 Q2116.4375,364.5469 2117.7813,364.5469 Q2118.4063,364.5469 2119,364.2813 Q2119.5938,364 2120.2188,363.4219 L2120.2188,366.1406 Z " fill="#000000"/><text fill="#000000" font-family="sans-serif" font-size="14" lengthAdjust="spacing" textLength="79" x="2137.75" y="365.3467">LecteurSQL</text><line style="stroke:#181818;stroke-width:0.5;" x1="1997.5" x2="2324.5" y1="376.5" y2="376.5"/><line style="stroke:#181818;stroke-width:0.5;" x1="1997.5" x2="2324.5" y1="384.5" y2="384.5"/><ellipse cx="2007.5" cy="398.1484" fill="#84BE84" rx="3" ry="3" style="stroke:#038048;stroke-width:1.0;"/><text fill="#000000" font-family="sans-serif" font-size="14" lengthAdjust="spacing" textLength="284" x="2016.5" y="401.4951">lireFichierSQL(cheminFichier: String): void</text><ellipse cx="2007.5" cy="414.4453" fill="#84BE84" rx="3" ry="3" style="stroke:#038048;stroke-width:1.0;"/><text fill="#000000" font-family="sans-serif" font-size="14" lengthAdjust="spacing" textLength="303" x="2016.5" y="417.792">ecrireFichierSQL(cheminFichier: String): void</text></g><!--MD5=[60e50665762410b99500c4c84210204c]
class Modele--><g id="elem_Modele"><rect codeLine="50" fill="#F1F1F1" height="227.2656" id="Modele" rx="2.5" ry="2.5" style="stroke:#181818;stroke-width:0.5;" width="620" x="639" y="518"/><ellipse cx="919.25" cy="534" fill="#ADD1B2" rx="11" ry="11" style="stroke:#181818;stroke-width:1.0;"/><path d="M922.2188,539.6406 Q921.6406,539.9375 921,540.0781 Q920.3594,540.2344 919.6563,540.2344 Q917.1563,540.2344 915.8281,538.5938 Q914.5156,536.9375 914.5156,533.8125 Q914.5156,530.6875 915.8281,529.0313 Q917.1563,527.375 919.6563,527.375 Q920.3594,527.375 921,527.5313 Q921.6563,527.6875 922.2188,527.9844 L922.2188,530.7031 Q921.5938,530.125 921,529.8594 Q920.4063,529.5781 919.7813,529.5781 Q918.4375,529.5781 917.75,530.6563 Q917.0625,531.7188 917.0625,533.8125 Q917.0625,535.9063 917.75,536.9844 Q918.4375,538.0469 919.7813,538.0469 Q920.4063,538.0469 921,537.7813 Q921.5938,537.5 922.2188,536.9219 L922.2188,539.6406 Z " fill="#000000"/><text fill="#000000" font-family="sans-serif" font-size="14" lengthAdjust="spacing" textLength="51" x="939.75" y="538.8467">Modele</text><line style="stroke:#181818;stroke-width:0.5;" x1="640" x2="1258" y1="550" y2="550"/><rect fill="none" height="6" style="stroke:#C82930;stroke-width:1.0;" width="6" x="647" y="560.6484"/><text fill="#000000" font-family="sans-serif" font-size="14" lengthAdjust="spacing" textLength="199" x="659" y="566.9951">utilisateurs: List&lt;Utilisateur&gt;</text><rect fill="none" height="6" style="stroke:#C82930;stroke-width:1.0;" width="6" x="647" y="576.9453"/><text fill="#000000" font-family="sans-serif" font-size="14" lengthAdjust="spacing" textLength="208" x="659" y="583.292">administrateur: Administrateur</text><rect fill="none" height="6" style="stroke:#C82930;stroke-width:1.0;" width="6" x="647" y="593.2422"/><text fill="#000000" font-family="sans-serif" font-size="14" lengthAdjust="spacing" textLength="173" x="659" y="599.5889">parseurJson: ParseurJson</text><rect fill="none" height="6" style="stroke:#C82930;stroke-width:1.0;" width="6" x="647" y="609.5391"/><text fill="#000000" font-family="sans-serif" font-size="14" lengthAdjust="spacing" textLength="163" x="659" y="615.8857">lecteurSQL: LecteurSQL</text><line style="stroke:#181818;stroke-width:0.5;" x1="640" x2="1258" y1="623.1875" y2="623.1875"/><ellipse cx="650" cy="636.8359" fill="#84BE84" rx="3" ry="3" style="stroke:#038048;stroke-width:1.0;"/><text fill="#000000" font-family="sans-serif" font-size="14" lengthAdjust="spacing" textLength="176" x="659" y="640.1826">chargerUtilisateurs(): void</text><ellipse cx="650" cy="653.1328" fill="#84BE84" rx="3" ry="3" style="stroke:#038048;stroke-width:1.0;"/><text fill="#000000" font-family="sans-serif" font-size="14" lengthAdjust="spacing" textLength="209" x="659" y="656.4795">sauvegarderUtilisateurs(): void</text><ellipse cx="650" cy="669.4297" fill="#84BE84" rx="3" ry="3" style="stroke:#038048;stroke-width:1.0;"/><text fill="#000000" font-family="sans-serif" font-size="14" lengthAdjust="spacing" textLength="498" x="659" y="672.7764">associerUtilisateur(parseurJson: ParseurJson, utilisateur: Utilisateur): void</text><ellipse cx="650" cy="685.7266" fill="#84BE84" rx="3" ry="3" style="stroke:#038048;stroke-width:1.0;"/><text fill="#000000" font-family="sans-serif" font-size="14" lengthAdjust="spacing" textLength="488" x="659" y="689.0732">associerUtilisateur(lecteurSQL: LecteurSQL, utilisateur: Utilisateur): void</text><ellipse cx="650" cy="702.0234" fill="#84BE84" rx="3" ry="3" style="stroke:#038048;stroke-width:1.0;"/><text fill="#000000" font-family="sans-serif" font-size="14" lengthAdjust="spacing" textLength="200" x="659" y="705.3701">chargerAdministrateur(): void</text><ellipse cx="650" cy="718.3203" fill="#84BE84" rx="3" ry="3" style="stroke:#038048;stroke-width:1.0;"/><text fill="#000000" font-family="sans-serif" font-size="14" lengthAdjust="spacing" textLength="233" x="659" y="721.667">sauvegarderAdministrateur(): void</text><ellipse cx="650" cy="734.6172" fill="#84BE84" rx="3" ry="3" style="stroke:#038048;stroke-width:1.0;"/><text fill="#000000" font-family="sans-serif" font-size="14" lengthAdjust="spacing" textLength="594" x="659" y="737.9639">associerAdministrateur(parseurJson: ParseurJson, administrateur: Administrateur): void</text></g><!--MD5=[ed6d4beff5b2079d195f33008a8bdefb]
class Model.Personne--><g id="elem_Model.Personne"><rect fill="#F1F1F1" height="48" id="Model.Personne" rx="2.5" ry="2.5" style="stroke:#181818;stroke-width:0.5;" width="99" x="392.5" y="122.5"/><ellipse cx="407.5" cy="138.5" fill="#ADD1B2" rx="11" ry="11" style="stroke:#181818;stroke-width:1.0;"/><path d="M410.4688,144.1406 Q409.8906,144.4375 409.25,144.5781 Q408.6094,144.7344 407.9063,144.7344 Q405.4063,144.7344 404.0781,143.0938 Q402.7656,141.4375 402.7656,138.3125 Q402.7656,135.1875 404.0781,133.5313 Q405.4063,131.875 407.9063,131.875 Q408.6094,131.875 409.25,132.0313 Q409.9063,132.1875 410.4688,132.4844 L410.4688,135.2031 Q409.8438,134.625 409.25,134.3594 Q408.6563,134.0781 408.0313,134.0781 Q406.6875,134.0781 406,135.1563 Q405.3125,136.2188 405.3125,138.3125 Q405.3125,140.4063 406,141.4844 Q406.6875,142.5469 408.0313,142.5469 Q408.6563,142.5469 409.25,142.2813 Q409.8438,142 410.4688,141.4219 L410.4688,144.1406 Z " fill="#000000"/><text fill="#000000" font-family="sans-serif" font-size="14" lengthAdjust="spacing" textLength="67" x="421.5" y="143.3467">Personne</text><line style="stroke:#181818;stroke-width:0.5;" x1="393.5" x2="490.5" y1="154.5" y2="154.5"/><line style="stroke:#181818;stroke-width:0.5;" x1="393.5" x2="490.5" y1="162.5" y2="162.5"/></g><!--MD5=[ae04475a21e7f2cbd2e17cf47af54ec7]
class Model.Utilisateur--><g id="elem_Model.Utilisateur"><rect fill="#F1F1F1" height="48" id="Model.Utilisateur" rx="2.5" ry="2.5" style="stroke:#181818;stroke-width:0.5;" width="100" x="317" y="361"/><ellipse cx="332" cy="377" fill="#ADD1B2" rx="11" ry="11" style="stroke:#181818;stroke-width:1.0;"/><path d="M334.9688,382.6406 Q334.3906,382.9375 333.75,383.0781 Q333.1094,383.2344 332.4063,383.2344 Q329.9063,383.2344 328.5781,381.5938 Q327.2656,379.9375 327.2656,376.8125 Q327.2656,373.6875 328.5781,372.0313 Q329.9063,370.375 332.4063,370.375 Q333.1094,370.375 333.75,370.5313 Q334.4063,370.6875 334.9688,370.9844 L334.9688,373.7031 Q334.3438,373.125 333.75,372.8594 Q333.1563,372.5781 332.5313,372.5781 Q331.1875,372.5781 330.5,373.6563 Q329.8125,374.7188 329.8125,376.8125 Q329.8125,378.9063 330.5,379.9844 Q331.1875,381.0469 332.5313,381.0469 Q333.1563,381.0469 333.75,380.7813 Q334.3438,380.5 334.9688,379.9219 L334.9688,382.6406 Z " fill="#000000"/><text fill="#000000" font-family="sans-serif" font-size="14" lengthAdjust="spacing" textLength="68" x="346" y="381.8467">Utilisateur</text><line style="stroke:#181818;stroke-width:0.5;" x1="318" x2="416" y1="393" y2="393"/><line style="stroke:#181818;stroke-width:0.5;" x1="318" x2="416" y1="401" y2="401"/></g><!--MD5=[7b512f35cfbb33538434f05000c0ddf8]
class Model.Administrateur--><g id="elem_Model.Administrateur"><rect fill="#F1F1F1" height="48" id="Model.Administrateur" rx="2.5" ry="2.5" style="stroke:#181818;stroke-width:0.5;" width="132" x="452" y="361"/><ellipse cx="467" cy="377" fill="#ADD1B2" rx="11" ry="11" style="stroke:#181818;stroke-width:1.0;"/><path d="M469.9688,382.6406 Q469.3906,382.9375 468.75,383.0781 Q468.1094,383.2344 467.4063,383.2344 Q464.9063,383.2344 463.5781,381.5938 Q462.2656,379.9375 462.2656,376.8125 Q462.2656,373.6875 463.5781,372.0313 Q464.9063,370.375 467.4063,370.375 Q468.1094,370.375 468.75,370.5313 Q469.4063,370.6875 469.9688,370.9844 L469.9688,373.7031 Q469.3438,373.125 468.75,372.8594 Q468.1563,372.5781 467.5313,372.5781 Q466.1875,372.5781 465.5,373.6563 Q464.8125,374.7188 464.8125,376.8125 Q464.8125,378.9063 465.5,379.9844 Q466.1875,381.0469 467.5313,381.0469 Q468.1563,381.0469 468.75,380.7813 Q469.3438,380.5 469.9688,379.9219 L469.9688,382.6406 Z " fill="#000000"/><text fill="#000000" font-family="sans-serif" font-size="14" lengthAdjust="spacing" textLength="100" x="481" y="381.8467">Administrateur</text><line style="stroke:#181818;stroke-width:0.5;" x1="453" x2="583" y1="393" y2="393"/><line style="stroke:#181818;stroke-width:0.5;" x1="453" x2="583" y1="401" y2="401"/></g><!--MD5=[327261791e0ae7659dc5071b92e3eec9]
class Model.Modele--><g id="elem_Model.Modele"><rect fill="#F1F1F1" height="48" id="Model.Modele" rx="2.5" ry="2.5" style="stroke:#181818;stroke-width:0.5;" width="83" x="325.5" y="607.5"/><ellipse cx="340.5" cy="623.5" fill="#ADD1B2" rx="11" ry="11" style="stroke:#181818;stroke-width:1.0;"/><path d="M343.4688,629.1406 Q342.8906,629.4375 342.25,629.5781 Q341.6094,629.7344 340.9063,629.7344 Q338.4063,629.7344 337.0781,628.0938 Q335.7656,626.4375 335.7656,623.3125 Q335.7656,620.1875 337.0781,618.5313 Q338.4063,616.875 340.9063,616.875 Q341.6094,616.875 342.25,617.0313 Q342.9063,617.1875 343.4688,617.4844 L343.4688,620.2031 Q342.8438,619.625 342.25,619.3594 Q341.6563,619.0781 341.0313,619.0781 Q339.6875,619.0781 339,620.1563 Q338.3125,621.2188 338.3125,623.3125 Q338.3125,625.4063 339,626.4844 Q339.6875,627.5469 341.0313,627.5469 Q341.6563,627.5469 342.25,627.2813 Q342.8438,627 343.4688,626.4219 L343.4688,629.1406 Z " fill="#000000"/><text fill="#000000" font-family="sans-serif" font-size="14" lengthAdjust="spacing" textLength="51" x="354.5" y="628.3467">Modele</text><line style="stroke:#181818;stroke-width:0.5;" x1="326.5" x2="407.5" y1="639.5" y2="639.5"/><line style="stroke:#181818;stroke-width:0.5;" x1="326.5" x2="407.5" y1="647.5" y2="647.5"/></g><!--MD5=[0ed8afdf31a3e2b1fa81917c06456d92]
class Model.ParseurJson--><g id="elem_Model.ParseurJson"><rect fill="#F1F1F1" height="48" id="Model.ParseurJson" rx="2.5" ry="2.5" style="stroke:#181818;stroke-width:0.5;" width="114" x="168" y="361"/><ellipse cx="183" cy="377" fill="#ADD1B2" rx="11" ry="11" style="stroke:#181818;stroke-width:1.0;"/><path d="M185.9688,382.6406 Q185.3906,382.9375 184.75,383.0781 Q184.1094,383.2344 183.4063,383.2344 Q180.9063,383.2344 179.5781,381.5938 Q178.2656,379.9375 178.2656,376.8125 Q178.2656,373.6875 179.5781,372.0313 Q180.9063,370.375 183.4063,370.375 Q184.1094,370.375 184.75,370.5313 Q185.4063,370.6875 185.9688,370.9844 L185.9688,373.7031 Q185.3438,373.125 184.75,372.8594 Q184.1563,372.5781 183.5313,372.5781 Q182.1875,372.5781 181.5,373.6563 Q180.8125,374.7188 180.8125,376.8125 Q180.8125,378.9063 181.5,379.9844 Q182.1875,381.0469 183.5313,381.0469 Q184.1563,381.0469 184.75,380.7813 Q185.3438,380.5 185.9688,379.9219 L185.9688,382.6406 Z " fill="#000000"/><text fill="#000000" font-family="sans-serif" font-size="14" lengthAdjust="spacing" textLength="82" x="197" y="381.8467">ParseurJson</text><line style="stroke:#181818;stroke-width:0.5;" x1="169" x2="281" y1="393" y2="393"/><line style="stroke:#181818;stroke-width:0.5;" x1="169" x2="281" y1="401" y2="401"/></g><!--MD5=[43a1d15348cad2ad3b0e950acfe299d0]
class Model.LecteurSQL--><g id="elem_Model.LecteurSQL"><rect fill="#F1F1F1" height="48" id="Model.LecteurSQL" rx="2.5" ry="2.5" style="stroke:#181818;stroke-width:0.5;" width="111" x="21.5" y="361"/><ellipse cx="36.5" cy="377" fill="#ADD1B2" rx="11" ry="11" style="stroke:#181818;stroke-width:1.0;"/><path d="M39.4688,382.6406 Q38.8906,382.9375 38.25,383.0781 Q37.6094,383.2344 36.9063,383.2344 Q34.4063,383.2344 33.0781,381.5938 Q31.7656,379.9375 31.7656,376.8125 Q31.7656,373.6875 33.0781,372.0313 Q34.4063,370.375 36.9063,370.375 Q37.6094,370.375 38.25,370.5313 Q38.9063,370.6875 39.4688,370.9844 L39.4688,373.7031 Q38.8438,373.125 38.25,372.8594 Q37.6563,372.5781 37.0313,372.5781 Q35.6875,372.5781 35,373.6563 Q34.3125,374.7188 34.3125,376.8125 Q34.3125,378.9063 35,379.9844 Q35.6875,381.0469 37.0313,381.0469 Q37.6563,381.0469 38.25,380.7813 Q38.8438,380.5 39.4688,379.9219 L39.4688,382.6406 Z " fill="#000000"/><text fill="#000000" font-family="sans-serif" font-size="14" lengthAdjust="spacing" textLength="79" x="50.5" y="381.8467">LecteurSQL</text><line style="stroke:#181818;stroke-width:0.5;" x1="22.5" x2="131.5" y1="393" y2="393"/><line style="stroke:#181818;stroke-width:0.5;" x1="22.5" x2="131.5" y1="401" y2="401"/></g><!--MD5=[f36f3b957e0c63c14351b85fe24b51f6]
class ConnectionView--><g id="elem_ConnectionView"><rect codeLine="67" fill="#F1F1F1" height="96.8906" id="ConnectionView" rx="2.5" ry="2.5" style="stroke:#181818;stroke-width:0.5;" width="302" x="3158" y="583"/><ellipse cx="3248.75" cy="599" fill="#ADD1B2" rx="11" ry="11" style="stroke:#181818;stroke-width:1.0;"/><path d="M3251.7188,604.6406 Q3251.1406,604.9375 3250.5,605.0781 Q3249.8594,605.2344 3249.1563,605.2344 Q3246.6563,605.2344 3245.3281,603.5938 Q3244.0156,601.9375 3244.0156,598.8125 Q3244.0156,595.6875 3245.3281,594.0313 Q3246.6563,592.375 3249.1563,592.375 Q3249.8594,592.375 3250.5,592.5313 Q3251.1563,592.6875 3251.7188,592.9844 L3251.7188,595.7031 Q3251.0938,595.125 3250.5,594.8594 Q3249.9063,594.5781 3249.2813,594.5781 Q3247.9375,594.5781 3247.25,595.6563 Q3246.5625,596.7188 3246.5625,598.8125 Q3246.5625,600.9063 3247.25,601.9844 Q3247.9375,603.0469 3249.2813,603.0469 Q3249.9063,603.0469 3250.5,602.7813 Q3251.0938,602.5 3251.7188,601.9219 L3251.7188,604.6406 Z " fill="#000000"/><text fill="#000000" font-family="sans-serif" font-size="14" lengthAdjust="spacing" textLength="112" x="3269.25" y="603.8467">ConnectionView</text><line style="stroke:#181818;stroke-width:0.5;" x1="3159" x2="3459" y1="615" y2="615"/><line style="stroke:#181818;stroke-width:0.5;" x1="3159" x2="3459" y1="623" y2="623"/><ellipse cx="3169" cy="636.6484" fill="#84BE84" rx="3" ry="3" style="stroke:#038048;stroke-width:1.0;"/><text fill="#000000" font-family="sans-serif" font-size="14" lengthAdjust="spacing" textLength="169" x="3178" y="639.9951">afficherPageLogin(): void</text><ellipse cx="3169" cy="652.9453" fill="#84BE84" rx="3" ry="3" style="stroke:#038048;stroke-width:1.0;"/><text fill="#000000" font-family="sans-serif" font-size="14" lengthAdjust="spacing" textLength="244" x="3178" y="656.292">demanderCreationUtilisateur(): void</text><ellipse cx="3169" cy="669.2422" fill="#84BE84" rx="3" ry="3" style="stroke:#038048;stroke-width:1.0;"/><text fill="#000000" font-family="sans-serif" font-size="14" lengthAdjust="spacing" textLength="276" x="3178" y="672.5889">demanderCreationAdministrateur(): void</text></g><!--MD5=[7ffcf859e0082f49b97ac59cc69faacc]
class MainView--><g id="elem_MainView"><rect codeLine="73" fill="#F1F1F1" height="80.5938" id="MainView" rx="2.5" ry="2.5" style="stroke:#181818;stroke-width:0.5;" width="432" x="2691" y="591"/><ellipse cx="2870.75" cy="607" fill="#ADD1B2" rx="11" ry="11" style="stroke:#181818;stroke-width:1.0;"/><path d="M2873.7188,612.6406 Q2873.1406,612.9375 2872.5,613.0781 Q2871.8594,613.2344 2871.1563,613.2344 Q2868.6563,613.2344 2867.3281,611.5938 Q2866.0156,609.9375 2866.0156,606.8125 Q2866.0156,603.6875 2867.3281,602.0313 Q2868.6563,600.375 2871.1563,600.375 Q2871.8594,600.375 2872.5,600.5313 Q2873.1563,600.6875 2873.7188,600.9844 L2873.7188,603.7031 Q2873.0938,603.125 2872.5,602.8594 Q2871.9063,602.5781 2871.2813,602.5781 Q2869.9375,602.5781 2869.25,603.6563 Q2868.5625,604.7188 2868.5625,606.8125 Q2868.5625,608.9063 2869.25,609.9844 Q2869.9375,611.0469 2871.2813,611.0469 Q2871.9063,611.0469 2872.5,610.7813 Q2873.0938,610.5 2873.7188,609.9219 L2873.7188,612.6406 Z " fill="#000000"/><text fill="#000000" font-family="sans-serif" font-size="14" lengthAdjust="spacing" textLength="64" x="2891.25" y="611.8467">MainView</text><line style="stroke:#181818;stroke-width:0.5;" x1="2692" x2="3122" y1="623" y2="623"/><line style="stroke:#181818;stroke-width:0.5;" x1="2692" x2="3122" y1="631" y2="631"/><ellipse cx="2702" cy="644.6484" fill="#84BE84" rx="3" ry="3" style="stroke:#038048;stroke-width:1.0;"/><text fill="#000000" font-family="sans-serif" font-size="14" lengthAdjust="spacing" textLength="342" x="2711" y="647.9951">afficherPagePrincipale(utilisateur: Utilisateur): void</text><ellipse cx="2702" cy="660.9453" fill="#84BE84" rx="3" ry="3" style="stroke:#038048;stroke-width:1.0;"/><text fill="#000000" font-family="sans-serif" font-size="14" lengthAdjust="spacing" textLength="406" x="2711" y="664.292">afficherPagePrincipale(administrateur: Administrateur): void</text></g><!--MD5=[f4c910ad3b9fcb423fce264c40936636]
class Vue.ConnectionView--><g id="elem_Vue.ConnectionView"><rect fill="#F1F1F1" height="48" id="Vue.ConnectionView" rx="2.5" ry="2.5" style="stroke:#181818;stroke-width:0.5;" width="144" x="2512" y="607.5"/><ellipse cx="2527" cy="623.5" fill="#ADD1B2" rx="11" ry="11" style="stroke:#181818;stroke-width:1.0;"/><path d="M2529.9688,629.1406 Q2529.3906,629.4375 2528.75,629.5781 Q2528.1094,629.7344 2527.4063,629.7344 Q2524.9063,629.7344 2523.5781,628.0938 Q2522.2656,626.4375 2522.2656,623.3125 Q2522.2656,620.1875 2523.5781,618.5313 Q2524.9063,616.875 2527.4063,616.875 Q2528.1094,616.875 2528.75,617.0313 Q2529.4063,617.1875 2529.9688,617.4844 L2529.9688,620.2031 Q2529.3438,619.625 2528.75,619.3594 Q2528.1563,619.0781 2527.5313,619.0781 Q2526.1875,619.0781 2525.5,620.1563 Q2524.8125,621.2188 2524.8125,623.3125 Q2524.8125,625.4063 2525.5,626.4844 Q2526.1875,627.5469 2527.5313,627.5469 Q2528.1563,627.5469 2528.75,627.2813 Q2529.3438,627 2529.9688,626.4219 L2529.9688,629.1406 Z " fill="#000000"/><text fill="#000000" font-family="sans-serif" font-size="14" lengthAdjust="spacing" textLength="112" x="2541" y="628.3467">ConnectionView</text><line style="stroke:#181818;stroke-width:0.5;" x1="2513" x2="2655" y1="639.5" y2="639.5"/><line style="stroke:#181818;stroke-width:0.5;" x1="2513" x2="2655" y1="647.5" y2="647.5"/></g><!--MD5=[eb85a4d824a85d55b7ef3cfa4dfc8cc5]
class Vue.MainView--><g id="elem_Vue.MainView"><rect fill="#F1F1F1" height="48" id="Vue.MainView" rx="2.5" ry="2.5" style="stroke:#181818;stroke-width:0.5;" width="96" x="2381" y="607.5"/><ellipse cx="2396" cy="623.5" fill="#ADD1B2" rx="11" ry="11" style="stroke:#181818;stroke-width:1.0;"/><path d="M2398.9688,629.1406 Q2398.3906,629.4375 2397.75,629.5781 Q2397.1094,629.7344 2396.4063,629.7344 Q2393.9063,629.7344 2392.5781,628.0938 Q2391.2656,626.4375 2391.2656,623.3125 Q2391.2656,620.1875 2392.5781,618.5313 Q2393.9063,616.875 2396.4063,616.875 Q2397.1094,616.875 2397.75,617.0313 Q2398.4063,617.1875 2398.9688,617.4844 L2398.9688,620.2031 Q2398.3438,619.625 2397.75,619.3594 Q2397.1563,619.0781 2396.5313,619.0781 Q2395.1875,619.0781 2394.5,620.1563 Q2393.8125,621.2188 2393.8125,623.3125 Q2393.8125,625.4063 2394.5,626.4844 Q2395.1875,627.5469 2396.5313,627.5469 Q2397.1563,627.5469 2397.75,627.2813 Q2398.3438,627 2398.9688,626.4219 L2398.9688,629.1406 Z " fill="#000000"/><text fill="#000000" font-family="sans-serif" font-size="14" lengthAdjust="spacing" textLength="64" x="2410" y="628.3467">MainView</text><line style="stroke:#181818;stroke-width:0.5;" x1="2382" x2="2476" y1="639.5" y2="639.5"/><line style="stroke:#181818;stroke-width:0.5;" x1="2382" x2="2476" y1="647.5" y2="647.5"/></g><!--MD5=[611d52831c49718b3adb9c5496536cf8]
class Controleur--><g id="elem_Controleur"><rect codeLine="80" fill="#F1F1F1" height="162.0781" id="Controleur" rx="2.5" ry="2.5" style="stroke:#181818;stroke-width:0.5;" width="422" x="2709" y="65.5"/><ellipse cx="2879.25" cy="81.5" fill="#ADD1B2" rx="11" ry="11" style="stroke:#181818;stroke-width:1.0;"/><path d="M2882.2188,87.1406 Q2881.6406,87.4375 2881,87.5781 Q2880.3594,87.7344 2879.6563,87.7344 Q2877.1563,87.7344 2875.8281,86.0938 Q2874.5156,84.4375 2874.5156,81.3125 Q2874.5156,78.1875 2875.8281,76.5313 Q2877.1563,74.875 2879.6563,74.875 Q2880.3594,74.875 2881,75.0313 Q2881.6563,75.1875 2882.2188,75.4844 L2882.2188,78.2031 Q2881.5938,77.625 2881,77.3594 Q2880.4063,77.0781 2879.7813,77.0781 Q2878.4375,77.0781 2877.75,78.1563 Q2877.0625,79.2188 2877.0625,81.3125 Q2877.0625,83.4063 2877.75,84.4844 Q2878.4375,85.5469 2879.7813,85.5469 Q2880.4063,85.5469 2881,85.2813 Q2881.5938,85 2882.2188,84.4219 L2882.2188,87.1406 Z " fill="#000000"/><text fill="#000000" font-family="sans-serif" font-size="14" lengthAdjust="spacing" textLength="73" x="2899.75" y="86.3467">Controleur</text><line style="stroke:#181818;stroke-width:0.5;" x1="2710" x2="3130" y1="97.5" y2="97.5"/><rect fill="none" height="6" style="stroke:#C82930;stroke-width:1.0;" width="6" x="2717" y="108.1484"/><text fill="#000000" font-family="sans-serif" font-size="14" lengthAdjust="spacing" textLength="158" x="2729" y="114.4951">modele: Model.Modele</text><rect fill="none" height="6" style="stroke:#C82930;stroke-width:1.0;" width="6" x="2717" y="124.4453"/><text fill="#000000" font-family="sans-serif" font-size="14" lengthAdjust="spacing" textLength="257" x="2729" y="130.792">vueConnection: Vue.ConnectionView</text><rect fill="none" height="6" style="stroke:#C82930;stroke-width:1.0;" width="6" x="2717" y="140.7422"/><text fill="#000000" font-family="sans-serif" font-size="14" lengthAdjust="spacing" textLength="195" x="2729" y="147.0889">vuePrincipale: Vue.MainView</text><line style="stroke:#181818;stroke-width:0.5;" x1="2710" x2="3130" y1="154.3906" y2="154.3906"/><ellipse cx="2720" cy="168.0391" fill="#84BE84" rx="3" ry="3" style="stroke:#038048;stroke-width:1.0;"/><text fill="#000000" font-family="sans-serif" font-size="14" lengthAdjust="spacing" textLength="185" x="2729" y="171.3857">demarrerApplication(): void</text><ellipse cx="2720" cy="184.3359" fill="#84BE84" rx="3" ry="3" style="stroke:#038048;stroke-width:1.0;"/><text fill="#000000" font-family="sans-serif" font-size="14" lengthAdjust="spacing" textLength="364" x="2729" y="187.6826">gererConnexionUtilisateur(motDePasse: String): void</text><ellipse cx="2720" cy="200.6328" fill="#84BE84" rx="3" ry="3" style="stroke:#038048;stroke-width:1.0;"/><text fill="#000000" font-family="sans-serif" font-size="14" lengthAdjust="spacing" textLength="396" x="2729" y="203.9795">gererConnexionAdministrateur(motDePasse: String): void</text><ellipse cx="2720" cy="216.9297" fill="#84BE84" rx="3" ry="3" style="stroke:#038048;stroke-width:1.0;"/><text fill="#000000" font-family="sans-serif" font-size="14" lengthAdjust="spacing" textLength="176" x="2729" y="220.2764">gererDeconnexion(): void</text></g><!--MD5=[bfe8f801e79052cccd181769cf2dfe93]
class Controleur.Controleur--><g id="elem_Controleur.Controleur"><rect fill="#F1F1F1" height="48" id="Controleur.Controleur" rx="2.5" ry="2.5" style="stroke:#181818;stroke-width:0.5;" width="105" x="2376.5" y="805"/><ellipse cx="2391.5" cy="821" fill="#ADD1B2" rx="11" ry="11" style="stroke:#181818;stroke-width:1.0;"/><path d="M2394.4688,826.6406 Q2393.8906,826.9375 2393.25,827.0781 Q2392.6094,827.2344 2391.9063,827.2344 Q2389.4063,827.2344 2388.0781,825.5938 Q2386.7656,823.9375 2386.7656,820.8125 Q2386.7656,817.6875 2388.0781,816.0313 Q2389.4063,814.375 2391.9063,814.375 Q2392.6094,814.375 2393.25,814.5313 Q2393.9063,814.6875 2394.4688,814.9844 L2394.4688,817.7031 Q2393.8438,817.125 2393.25,816.8594 Q2392.6563,816.5781 2392.0313,816.5781 Q2390.6875,816.5781 2390,817.6563 Q2389.3125,818.7188 2389.3125,820.8125 Q2389.3125,822.9063 2390,823.9844 Q2390.6875,825.0469 2392.0313,825.0469 Q2392.6563,825.0469 2393.25,824.7813 Q2393.8438,824.5 2394.4688,823.9219 L2394.4688,826.6406 Z " fill="#000000"/><text fill="#000000" font-family="sans-serif" font-size="14" lengthAdjust="spacing" textLength="73" x="2405.5" y="825.8467">Controleur</text><line style="stroke:#181818;stroke-width:0.5;" x1="2377.5" x2="2480.5" y1="837" y2="837"/><line style="stroke:#181818;stroke-width:0.5;" x1="2377.5" x2="2480.5" y1="845" y2="845"/></g><!--MD5=[51ab9484fea56bd57d34a5b74ba6ef97]
reverse link Model.Personne to Model.Utilisateur--><g id="link_Model.Personne_Model.Utilisateur"><path codeLine="92" d="M428.55,189.9 C412.7,239.89 386.92,321.17 374.36,360.8 " fill="none" id="Model.Personne-backto-Model.Utilisateur" style="stroke:#181818;stroke-width:1.0;"/><polygon fill="none" points="421.95,187.56,434.67,170.61,435.3,191.79,421.95,187.56" style="stroke:#181818;stroke-width:1.0;"/></g><!--MD5=[dc17f87e0f7ddc18d8b948dd06d8049a]
reverse link Model.Personne to Model.Administrateur--><g id="link_Model.Personne_Model.Administrateur"><path codeLine="93" d="M455.63,189.9 C471.69,239.89 497.81,321.17 510.54,360.8 " fill="none" id="Model.Personne-backto-Model.Administrateur" style="stroke:#181818;stroke-width:1.0;"/><polygon fill="none" points="448.88,191.79,449.43,170.61,462.21,187.51,448.88,191.79" style="stroke:#181818;stroke-width:1.0;"/></g><!--MD5=[9cbe0d03106eb92247c7a39c00eab8d6]
link Model.Utilisateur to Model.Modele--><g id="link_Model.Utilisateur_Model.Modele"><path codeLine="94" d="M367,409 C367,455.6 367,560.68 367,607.38 " fill="none" id="Model.Utilisateur-Model.Modele" style="stroke:#181818;stroke-width:1.0;"/></g><!--MD5=[cc32d0173aebf9f8c81b89786b5169fa]
link Model.Administrateur to Model.Modele--><g id="link_Model.Administrateur_Model.Modele"><path codeLine="95" d="M503.79,409 C475.01,455.6 410.12,560.68 381.28,607.38 " fill="none" id="Model.Administrateur-Model.Modele" style="stroke:#181818;stroke-width:1.0;"/></g><!--MD5=[288f7cbab544ca6348c5967e4686e9e4]
link Model.ParseurJson to Model.Modele--><g id="link_Model.ParseurJson_Model.Modele"><path codeLine="96" d="M238.36,409 C265.42,455.6 326.45,560.68 353.57,607.38 " fill="none" id="Model.ParseurJson-Model.Modele" style="stroke:#181818;stroke-width:1.0;"/></g><!--MD5=[974e793a92827e0e9c9692941c8b5ecf]
link Model.LecteurSQL to Model.Modele--><g id="link_Model.LecteurSQL_Model.Modele"><path codeLine="97" d="M99.78,409.3 C114.14,423.7 133.26,442.35 151,458 C214.7,514.19 293.57,575.14 336.19,607.41 " fill="none" id="Model.LecteurSQL-Model.Modele" style="stroke:#181818;stroke-width:1.0;"/></g><!--MD5=[13a5613a138e5663f3cb9d80310f0dae]
link Vue.ConnectionView to Controleur.Controleur--><g id="link_Vue.ConnectionView_Controleur.Controleur"><path codeLine="98" d="M2571.5,655.51 C2555.64,683.72 2526.52,732.3 2495,769 C2483.99,781.83 2470.25,794.52 2458.17,804.83 " fill="none" id="Vue.ConnectionView-Controleur.Controleur" style="stroke:#181818;stroke-width:1.0;"/></g><!--MD5=[d723d582efdf404a599c8dc3a2682d65]
link Vue.MainView to Controleur.Controleur--><g id="link_Vue.MainView_Controleur.Controleur"><path codeLine="99" d="M2429,655.69 C2429,693.32 2429,767.23 2429,804.84 " fill="none" id="Vue.MainView-Controleur.Controleur" style="stroke:#181818;stroke-width:1.0;"/></g><!--MD5=[7af0f8ff3fd6c284fd97a8730ed71e11]
link Model.Modele to Controleur.Controleur--><g id="link_Model.Modele_Controleur.Controleur"><path codeLine="100" d="M398.38,655.53 C444.6,687.93 534.94,745.65 622,769 C795.09,815.43 2097.41,825.97 2376.46,827.71 " fill="none" id="Model.Modele-Controleur.Controleur" style="stroke:#181818;stroke-width:1.0;"/></g><!--MD5=[f5210b8c22a7127ec06016b67e9010e1]
@startuml
package Model {
  enum Droits {
    Lecture
    LectureModification
    LectureModificationEcriture
  }

  abstract class Personne {
    - id: UUID
    - nom: String
  }

  class Utilisateur {
    - profils: Map<String, Droits>
    + droitsParDefaut: Droits

    + changerProfil(nouveauProfil: String): void
    + seConnecter(motDePasse: String): void
    + seDeconnecter(): void
    + supprimerProfil(nomProfil: String): void
    + ajouterProfil(nomProfil: String, droits: Droits): void
    + modifierProfil(nomProfil: String, nouveauxDroits: Droits): void
    + chargerBDD(cheminFichier: String): void
    + modifierBDD(cheminFichier: String): void
  }

  class Administrateur {
    + ajouterProfilUtilisateur(utilisateur: Utilisateur, nomProfil: String, droits: Droits): void
    + supprimerProfilUtilisateur(utilisateur: Utilisateur, nomProfil: String): void
    + modifierProfilUtilisateur(utilisateur: Utilisateur, nomProfil: String, nouveauxDroits: Droits): void
    + ajouterUtilisateur(nom: String, droits: Droits): Utilisateur
    + supprimerUtilisateur(utilisateur: Utilisateur): void
    + modifierUtilisateur(utilisateur: Utilisateur, nouveauxDroits: Droits): void
  }

  class ParseurJson {
    + lireFichierJsonUtilisateur(cheminFichier: String): Utilisateur
    + ecrireFichierJsonUtilisateur(utilisateur: Utilisateur, cheminFichier: String): void
    + lireFichierJsonAdministrateur(cheminFichier: String): Administrateur
    + ecrireFichierJsonAdministrateur(administrateur: Administrateur, cheminFichier: String): void
    + crypterMotDePasse(motDePasse: String): String
    + decrypterMotDePasse(motDePasseCrypte: String): String
  }

  class LecteurSQL {
    + lireFichierSQL(cheminFichier: String): void
    + ecrireFichierSQL(cheminFichier: String): void
  }

  class Modele {
    - utilisateurs: List<Utilisateur>
    - administrateur: Administrateur
    - parseurJson: ParseurJson
    - lecteurSQL: LecteurSQL

    + chargerUtilisateurs(): void
    + sauvegarderUtilisateurs(): void
    + associerUtilisateur(parseurJson: ParseurJson, utilisateur: Utilisateur): void
    + associerUtilisateur(lecteurSQL: LecteurSQL, utilisateur: Utilisateur): void
    + chargerAdministrateur(): void
    + sauvegarderAdministrateur(): void
    + associerAdministrateur(parseurJson: ParseurJson, administrateur: Administrateur): void
  }
}

package Vue {
  class ConnectionView {
    + afficherPageLogin(): void
    + demanderCreationUtilisateur(): void
    + demanderCreationAdministrateur(): void
  }

  class MainView {
    + afficherPagePrincipale(utilisateur: Utilisateur): void
    + afficherPagePrincipale(administrateur: Administrateur): void
  }
}

package Controleur {
  class Controleur {
    - modele: Model.Modele
    - vueConnection: Vue.ConnectionView
    - vuePrincipale: Vue.MainView

    + demarrerApplication(): void
    + gererConnexionUtilisateur(motDePasse: String): void
    + gererConnexionAdministrateur(motDePasse: String): void
    + gererDeconnexion(): void
  }
}

Model.Personne <|- - Model.Utilisateur
Model.Personne <|- - Model.Administrateur
Model.Utilisateur - - Model.Modele
Model.Administrateur - - Model.Modele
Model.ParseurJson - - Model.Modele
Model.LecteurSQL - - Model.Modele
Vue.ConnectionView - - Controleur.Controleur
Vue.MainView - - Controleur.Controleur
Model.Modele - - Controleur.Controleur
@enduml

PlantUML version 1.2022.7(Mon Aug 22 17:01:30 UTC 2022)
(GPL source distribution)
Java Runtime: OpenJDK Runtime Environment
JVM: OpenJDK 64-Bit Server VM
Default Encoding: UTF-8
Language: en
Country: null
--></g></svg>